<?xml version="1.0" encoding="UTF-8" standalone="no"?>
<!DOCTYPE svg PUBLIC "-//W3C//DTD SVG 1.1//EN" "http://www.w3.org/Graphics/SVG/1.1/DTD/svg11.dtd">
<svg width="100%" height="100%" viewBox="0 0 25 24" version="1.1" xmlns="http://www.w3.org/2000/svg" xmlns:xlink="http://www.w3.org/1999/xlink" xml:space="preserve" xmlns:serif="http://www.serif.com/" style="fill-rule:evenodd;clip-rule:evenodd;stroke-linejoin:round;stroke-miterlimit:2;">
    <g transform="matrix(1,0,0,1,-497,-250.91)">
        <g transform="matrix(1,0,0,1,15,1.09014)">
            <g transform="matrix(1,0,0,0.41372,0,160.054)">
                <path d="M482,273L482,257.038C482,257.038 486.153,255.673 488.783,250.255C488.783,246.103 488.783,273 488.783,273L482,273Z" style="fill:rgb(238,237,237);"/>
            </g>
            <g transform="matrix(1,0,0,0.82744,9,47.109)">
                <path d="M482,273L482,257.038C482,257.038 486.153,255.673 488.783,250.255C488.783,246.103 488.783,273 488.783,273L482,273Z" style="fill:rgb(238,237,237);"/>
            </g>
            <g transform="matrix(1,0,0,1,18,0)">
                <path d="M482,273L482,257.038C482,257.038 486.153,255.673 488.783,250.255C488.783,246.103 488.783,273 488.783,273L482,273Z" style="fill:rgb(238,237,237);"/>
            </g>
        </g>
    </g>
</svg>
